# xmcd CD database file
#
# Track frame offsets:
#	150
#	25140
#	42160
#
# Disc length: 892 seconds
#
# Revision: 2
# Processed by: cddbd v1.5PL3 Copyright (c) Steve Scherf et al.
# Submitted via: CDex 1.50Beta7
#
DISCID=1a037a03
DTITLE=Kinki Kids - solitude 〜真実のサヨナラ〜
DYEAR=2002
DGENRE=JPop
TTITLE0=solitude 〜真実のサヨナラ〜
TTITLE1=太陽の扉
TTITLE2=solitude 〜真実のサヨナラ〜 （オリジナル・カラオケ）
EXTD=YEAR: 2002
EXTT0=
EXTT1=
EXTT2=
PLAYORDER=
